# Blender 4.1.1
# www.blender.org
mtllib sample.mtl
o Cube
v -0.619367 1.253609 0.619367
v -0.619367 2.460645 0.619367
v -0.619367 1.253609 -0.587669
v -0.619367 2.460645 -0.587669
v 0.587669 1.253609 0.619367
v 0.587669 2.460645 0.619367
v 0.587669 1.253609 -0.587669
v 0.587669 2.460645 -0.587669
v -0.425984 1.857127 0.425984
v -0.425984 1.857127 -0.394285
v 0.394285 1.857127 -0.394285
v 0.394285 1.857127 0.425984
v -0.309292 3.395426 0.309292
v -0.309292 3.395426 -0.180048
v 0.180048 3.395426 0.309292
v 0.180048 3.395426 -0.180048
v 0.000000 0.817453 -0.923880
v 0.000000 0.434770 -1.000000
v 0.000000 0.052086 -0.923880
v 0.000000 -0.489110 -0.382683
v 0.146447 1.358649 -0.353553
v 0.270598 1.141876 -0.653281
v 0.353553 0.817453 -0.853553
v 0.382683 0.434770 -0.923880
v 0.353553 0.052086 -0.853553
v 0.270598 -0.272337 -0.653281
v 0.146447 -0.489110 -0.353553
v 0.270598 1.358649 -0.270598
v 0.500000 1.141876 -0.500000
v 0.653282 0.817453 -0.653281
v 0.707107 0.434770 -0.707107
v 0.653282 0.052086 -0.653281
v 0.500000 -0.272337 -0.500000
v 0.270598 -0.489110 -0.270598
v 0.353553 1.358649 -0.146447
v 0.653281 1.141876 -0.270598
v 0.853553 0.817453 -0.353553
v 0.923880 0.434770 -0.382683
v 0.853553 0.052086 -0.353553
v 0.653281 -0.272337 -0.270598
v 0.353553 -0.489110 -0.146447
v 0.382683 1.358649 -0.000000
v 0.707107 1.141876 -0.000000
v 0.923880 0.817453 -0.000000
v 1.000000 0.434770 -0.000000
v 0.923880 0.052086 -0.000000
v 0.707107 -0.272337 0.000000
v 0.382683 -0.489110 0.000000
v 0.353553 1.358649 0.146447
v 0.653281 1.141876 0.270598
v 0.853553 0.817453 0.353554
v 0.923879 0.434770 0.382684
v 0.853553 0.052086 0.353554
v 0.653281 -0.272337 0.270598
v 0.353553 -0.489110 0.146447
v 0.270598 1.358649 0.270598
v 0.500000 1.141876 0.500000
v 0.653281 0.817453 0.653282
v 0.707107 0.434770 0.707107
v 0.653281 0.052086 0.653282
v 0.500000 -0.272337 0.500000
v 0.270598 -0.489110 0.270598
v 0.146447 1.358649 0.353553
v 0.270598 1.141876 0.653281
v 0.353553 0.817453 0.853553
v 0.382683 0.434770 0.923880
v 0.353553 0.052086 0.853553
v 0.270598 -0.272337 0.653281
v 0.146447 -0.489110 0.353553
v 0.000000 1.358649 0.382683
v 0.000000 1.141876 0.707107
v 0.000000 0.817453 0.923879
v 0.000000 0.434770 1.000000
v 0.000000 0.052086 0.923879
v 0.000000 -0.272337 0.707107
v 0.000000 -0.489110 0.382683
v 0.000000 -0.565230 0.000000
v 0.000000 1.434770 -0.000000
v -0.146447 1.358649 0.353553
v -0.270598 1.141876 0.653281
v -0.353554 0.817453 0.853553
v -0.382684 0.434770 0.923879
v -0.353554 0.052086 0.853553
v -0.270598 -0.272337 0.653281
v -0.146447 -0.489110 0.353553
v -0.270598 1.358649 0.270598
v -0.500000 1.141876 0.500000
v -0.653282 0.817453 0.653281
v -0.707107 0.434770 0.707106
v -0.653282 0.052086 0.653281
v -0.500000 -0.272337 0.500000
v -0.270598 -0.489110 0.270598
v -0.353553 1.358649 0.146446
v -0.653281 1.141876 0.270598
v -0.853553 0.817453 0.353553
v -0.923880 0.434770 0.382683
v -0.853553 0.052086 0.353553
v -0.653281 -0.272337 0.270598
v -0.353553 -0.489110 0.146446
v -0.382683 1.358649 -0.000000
v -0.707107 1.141876 -0.000000
v -0.923879 0.817453 -0.000000
v -1.000000 0.434770 -0.000001
v -0.923879 0.052086 -0.000000
v -0.707107 -0.272337 0.000000
v -0.382683 -0.489110 0.000000
v -0.353553 1.358649 -0.146447
v -0.653281 1.141876 -0.270598
v -0.853553 0.817453 -0.353554
v -0.923879 0.434770 -0.382684
v -0.853553 0.052086 -0.353554
v -0.653281 -0.272337 -0.270598
v -0.353553 -0.489110 -0.146447
v -0.270598 1.358649 -0.270598
v -0.500000 1.141876 -0.500000
v -0.653281 0.817453 -0.653282
v -0.707106 0.434770 -0.707107
v -0.653281 0.052086 -0.653282
v -0.500000 -0.272337 -0.500000
v -0.270598 -0.489110 -0.270598
v -0.146446 1.358649 -0.353554
v -0.270598 1.141876 -0.653281
v -0.353553 0.817453 -0.853553
v -0.382683 0.434770 -0.923880
v -0.353553 0.052086 -0.853553
v -0.270598 -0.272337 -0.653281
v -0.146446 -0.489110 -0.353554
v 0.000000 1.358649 -0.382683
v 0.000000 1.141876 -0.707107
v 0.000000 -0.272337 -0.707107
vn -0.9523 -0.3051 -0.0000
vn -0.0000 -0.3051 -0.9523
vn 0.9523 -0.3051 -0.0000
vn -0.0000 -0.3051 0.9523
vn -0.0000 -1.0000 -0.0000
vn -0.0000 0.3997 -0.9166
vn -0.0000 0.3051 0.9523
vn 0.9523 0.3051 -0.0000
vn -0.0000 0.3051 -0.9523
vn -0.9523 0.3051 -0.0000
vn -0.0000 1.0000 -0.0000
vn 0.9166 0.3997 -0.0000
vn -0.9491 0.3148 -0.0000
vn -0.0000 0.3148 0.9491
vn 0.1915 0.1915 -0.9626
vn 0.1098 0.8264 -0.5522
vn 0.1098 -0.8264 -0.5522
vn 0.1915 -0.1915 -0.9626
vn 0.1632 0.5481 -0.8203
vn 0.0388 0.9800 -0.1949
vn 0.0388 -0.9800 -0.1949
vn 0.1632 -0.5481 -0.8203
vn 0.3128 -0.8264 -0.4681
vn 0.5453 -0.1915 -0.8161
vn 0.4647 0.5481 -0.6954
vn 0.1104 0.9800 -0.1653
vn 0.1104 -0.9800 -0.1653
vn 0.4647 -0.5481 -0.6954
vn 0.5453 0.1915 -0.8161
vn 0.3128 0.8264 -0.4681
vn 0.1653 0.9800 -0.1104
vn 0.1653 -0.9800 -0.1104
vn 0.6954 -0.5481 -0.4647
vn 0.8161 0.1915 -0.5453
vn 0.4681 0.8264 -0.3128
vn 0.4681 -0.8264 -0.3128
vn 0.8161 -0.1915 -0.5453
vn 0.6954 0.5481 -0.4647
vn 0.8203 -0.5481 -0.1632
vn 0.9626 0.1915 -0.1915
vn 0.5522 0.8264 -0.1098
vn 0.5522 -0.8264 -0.1098
vn 0.9626 -0.1915 -0.1915
vn 0.8203 0.5481 -0.1632
vn 0.1949 0.9800 -0.0388
vn 0.1949 -0.9800 -0.0388
vn 0.5522 -0.8264 0.1098
vn 0.9626 -0.1915 0.1915
vn 0.8203 0.5481 0.1632
vn 0.1949 0.9800 0.0388
vn 0.1949 -0.9800 0.0388
vn 0.8203 -0.5481 0.1632
vn 0.9626 0.1915 0.1915
vn 0.5522 0.8264 0.1098
vn 0.8161 -0.1915 0.5453
vn 0.6954 0.5481 0.4647
vn 0.1653 0.9800 0.1104
vn 0.1653 -0.9800 0.1104
vn 0.6954 -0.5481 0.4647
vn 0.8161 0.1915 0.5453
vn 0.4681 0.8264 0.3128
vn 0.4681 -0.8264 0.3128
vn 0.1104 -0.9800 0.1653
vn 0.4647 -0.5481 0.6954
vn 0.5453 0.1915 0.8161
vn 0.3128 0.8264 0.4681
vn 0.3128 -0.8264 0.4681
vn 0.5453 -0.1915 0.8161
vn 0.4647 0.5481 0.6954
vn 0.1104 0.9800 0.1653
vn 0.1915 0.1915 0.9626
vn 0.1098 0.8264 0.5522
vn 0.1098 -0.8264 0.5522
vn 0.1915 -0.1915 0.9626
vn 0.1632 0.5481 0.8203
vn 0.0388 0.9800 0.1949
vn 0.0388 -0.9800 0.1949
vn 0.1632 -0.5481 0.8203
vn -0.1098 -0.8264 0.5522
vn -0.1915 -0.1915 0.9626
vn -0.1632 0.5481 0.8203
vn -0.0388 0.9800 0.1949
vn -0.0388 -0.9800 0.1949
vn -0.1632 -0.5481 0.8203
vn -0.1915 0.1915 0.9626
vn -0.1098 0.8264 0.5522
vn -0.4647 0.5481 0.6954
vn -0.1104 0.9800 0.1653
vn -0.1104 -0.9800 0.1653
vn -0.4647 -0.5481 0.6954
vn -0.5453 0.1915 0.8161
vn -0.3128 0.8264 0.4681
vn -0.3128 -0.8264 0.4681
vn -0.5453 -0.1915 0.8161
vn -0.1653 -0.9800 0.1104
vn -0.6954 -0.5481 0.4647
vn -0.8161 0.1915 0.5453
vn -0.4681 0.8264 0.3128
vn -0.4681 -0.8264 0.3128
vn -0.8161 -0.1915 0.5453
vn -0.6954 0.5481 0.4647
vn -0.1653 0.9800 0.1104
vn -0.5522 0.8264 0.1098
vn -0.5522 -0.8264 0.1098
vn -0.9626 -0.1915 0.1915
vn -0.8203 0.5481 0.1632
vn -0.1949 0.9800 0.0388
vn -0.1949 -0.9800 0.0388
vn -0.8203 -0.5481 0.1632
vn -0.9626 0.1915 0.1915
vn -0.5522 -0.8264 -0.1098
vn -0.9626 -0.1915 -0.1915
vn -0.8203 0.5481 -0.1632
vn -0.1949 0.9800 -0.0388
vn -0.1949 -0.9800 -0.0388
vn -0.8203 -0.5481 -0.1632
vn -0.9626 0.1915 -0.1915
vn -0.5522 0.8264 -0.1098
vn -0.1653 0.9800 -0.1104
vn -0.1653 -0.9800 -0.1104
vn -0.6954 -0.5481 -0.4647
vn -0.8161 0.1915 -0.5453
vn -0.4681 0.8264 -0.3128
vn -0.4681 -0.8264 -0.3128
vn -0.8161 -0.1915 -0.5453
vn -0.6954 0.5481 -0.4647
vn -0.4647 -0.5481 -0.6954
vn -0.5453 0.1915 -0.8161
vn -0.3128 0.8264 -0.4681
vn -0.3128 -0.8264 -0.4681
vn -0.5453 -0.1915 -0.8161
vn -0.4647 0.5481 -0.6954
vn -0.1104 0.9800 -0.1653
vn -0.1104 -0.9800 -0.1653
vn -0.1098 -0.8264 -0.5522
vn -0.1915 -0.1915 -0.9626
vn -0.1632 0.5481 -0.8203
vn -0.0388 0.9800 -0.1949
vn -0.0388 -0.9800 -0.1949
vn -0.1632 -0.5481 -0.8203
vn -0.1915 0.1915 -0.9626
vn -0.1098 0.8264 -0.5522
vt 0.500000 0.000000
vt 0.625000 0.000000
vt 0.625000 0.250000
vt 0.500000 0.250000
vt 0.625000 0.500000
vt 0.500000 0.500000
vt 0.625000 0.750000
vt 0.500000 0.750000
vt 0.625000 1.000000
vt 0.500000 1.000000
vt 0.125000 0.500000
vt 0.375000 0.500000
vt 0.375000 0.750000
vt 0.125000 0.750000
vt 0.375000 1.000000
vt 0.375000 0.250000
vt 0.375000 0.000000
vt 0.875000 0.500000
vt 0.875000 0.750000
vt 0.750000 0.500000
vt 0.750000 0.625000
vt 0.687500 0.625000
vt 0.687500 0.500000
vt 0.750000 0.750000
vt 0.750000 0.875000
vt 0.687500 0.875000
vt 0.687500 0.750000
vt 0.750000 0.125000
vt 0.750000 0.250000
vt 0.687500 0.250000
vt 0.687500 0.125000
vt 0.750000 0.375000
vt 0.687500 0.375000
vt 0.718750 1.000000
vt 0.718750 0.000000
vt 0.625000 0.125000
vt 0.625000 0.375000
vt 0.625000 0.625000
vt 0.656250 1.000000
vt 0.625000 0.875000
vt 0.656250 0.000000
vt 0.593750 1.000000
vt 0.562500 0.875000
vt 0.593750 0.000000
vt 0.562500 0.125000
vt 0.562500 0.375000
vt 0.562500 0.250000
vt 0.562500 0.625000
vt 0.562500 0.500000
vt 0.562500 0.750000
vt 0.500000 0.375000
vt 0.500000 0.625000
vt 0.500000 0.875000
vt 0.500000 0.125000
vt 0.531250 1.000000
vt 0.531250 0.000000
vt 0.437500 0.250000
vt 0.437500 0.125000
vt 0.437500 0.500000
vt 0.437500 0.375000
vt 0.437500 0.750000
vt 0.437500 0.625000
vt 0.468750 1.000000
vt 0.437500 0.875000
vt 0.468750 0.000000
vt 0.375000 0.375000
vt 0.375000 0.625000
vt 0.406250 1.000000
vt 0.375000 0.875000
vt 0.406250 0.000000
vt 0.375000 0.125000
vt 0.343750 0.000000
vt 0.312500 0.125000
vt 0.312500 0.375000
vt 0.312500 0.250000
vt 0.312500 0.625000
vt 0.312500 0.500000
vt 0.312500 0.875000
vt 0.312500 0.750000
vt 0.343750 1.000000
vt 0.250000 0.625000
vt 0.250000 0.500000
vt 0.250000 0.875000
vt 0.250000 0.750000
vt 0.250000 0.250000
vt 0.250000 0.125000
vt 0.250000 0.375000
vt 0.281250 1.000000
vt 0.281250 0.000000
vt 0.187500 0.250000
vt 0.187500 0.125000
vt 0.187500 0.500000
vt 0.187500 0.375000
vt 0.187500 0.750000
vt 0.187500 0.625000
vt 0.218750 1.000000
vt 0.187500 0.875000
vt 0.218750 0.000000
vt 0.125000 0.625000
vt 0.156250 1.000000
vt 0.125000 0.875000
vt 0.156250 0.000000
vt 0.125000 0.125000
vt 0.125000 0.375000
vt 0.125000 0.250000
vt 0.093750 0.000000
vt 0.062500 0.125000
vt 0.062500 0.375000
vt 0.062500 0.250000
vt 0.062500 0.625000
vt 0.062500 0.500000
vt 0.062500 0.875000
vt 0.062500 0.750000
vt 0.093750 1.000000
vt 0.000000 0.875000
vt 0.000000 0.750000
vt 0.000000 0.250000
vt 0.000000 0.125000
vt 0.000000 0.500000
vt 0.000000 0.375000
vt 0.000000 0.625000
vt 0.031250 1.000000
vt 0.031250 0.000000
vt 1.000000 0.125000
vt 1.000000 0.250000
vt 0.937500 0.250000
vt 0.937500 0.125000
vt 1.000000 0.375000
vt 1.000000 0.500000
vt 0.937500 0.500000
vt 0.937500 0.375000
vt 1.000000 0.625000
vt 1.000000 0.750000
vt 0.937500 0.750000
vt 0.937500 0.625000
vt 1.000000 0.875000
vt 0.968750 1.000000
vt 0.937500 0.875000
vt 0.968750 0.000000
vt 0.906250 1.000000
vt 0.875000 0.875000
vt 0.906250 0.000000
vt 0.875000 0.125000
vt 0.875000 0.375000
vt 0.875000 0.250000
vt 0.875000 0.625000
vt 0.812500 0.375000
vt 0.812500 0.250000
vt 0.812500 0.625000
vt 0.812500 0.500000
vt 0.812500 0.875000
vt 0.812500 0.750000
vt 0.812500 0.125000
vt 0.843750 1.000000
vt 0.843750 0.000000
vt 0.781250 1.000000
vt 0.781250 0.000000
s 0
f 9/1/1 2/2/1 4/3/1 10/4/1
f 10/4/2 4/3/2 8/5/2 11/6/2
f 11/6/3 8/5/3 6/7/3 12/8/3
f 12/8/4 6/7/4 2/9/4 9/10/4
f 3/11/5 7/12/5 5/13/5 1/14/5
f 8/5/6 4/3/6 14/3/6 16/5/6
f 5/13/7 12/8/7 9/10/7 1/15/7
f 7/12/8 11/6/8 12/8/8 5/13/8
f 3/16/9 10/4/9 11/6/9 7/12/9
f 1/17/10 9/1/10 10/4/10 3/16/10
f 16/5/11 14/18/11 13/19/11 15/7/11
f 6/7/12 8/5/12 16/5/12 15/7/12
f 4/3/13 2/2/13 13/2/13 14/3/13
f 2/9/14 6/7/14 15/7/14 13/9/14
f 18/20/15 17/21/15 23/22/15 24/23/15
f 129/24/16 128/25/16 21/26/16 22/27/16
f 20/28/17 130/29/17 26/30/17 27/31/17
f 19/32/18 18/20/18 24/23/18 25/33/18
f 17/21/19 129/24/19 22/27/19 23/22/19
f 128/25/20 78/34/20 21/26/20
f 77/35/21 20/28/21 27/31/21
f 130/29/22 19/32/22 25/33/22 26/30/22
f 27/31/23 26/30/23 33/3/23 34/36/23
f 25/33/24 24/23/24 31/5/24 32/37/24
f 23/22/25 22/27/25 29/7/25 30/38/25
f 21/26/26 78/39/26 28/40/26
f 77/41/27 27/31/27 34/36/27
f 26/30/28 25/33/28 32/37/28 33/3/28
f 24/23/29 23/22/29 30/38/29 31/5/29
f 22/27/30 21/26/30 28/40/30 29/7/30
f 28/40/31 78/42/31 35/43/31
f 77/44/32 34/36/32 41/45/32
f 33/3/33 32/37/33 39/46/33 40/47/33
f 31/5/34 30/38/34 37/48/34 38/49/34
f 29/7/35 28/40/35 35/43/35 36/50/35
f 34/36/36 33/3/36 40/47/36 41/45/36
f 32/37/37 31/5/37 38/49/37 39/46/37
f 30/38/38 29/7/38 36/50/38 37/48/38
f 40/47/39 39/46/39 46/51/39 47/4/39
f 38/49/40 37/48/40 44/52/40 45/6/40
f 36/50/41 35/43/41 42/53/41 43/8/41
f 41/45/42 40/47/42 47/4/42 48/54/42
f 39/46/43 38/49/43 45/6/43 46/51/43
f 37/48/44 36/50/44 43/8/44 44/52/44
f 35/43/45 78/55/45 42/53/45
f 77/56/46 41/45/46 48/54/46
f 48/54/47 47/4/47 54/57/47 55/58/47
f 46/51/48 45/6/48 52/59/48 53/60/48
f 44/52/49 43/8/49 50/61/49 51/62/49
f 42/53/50 78/63/50 49/64/50
f 77/65/51 48/54/51 55/58/51
f 47/4/52 46/51/52 53/60/52 54/57/52
f 45/6/53 44/52/53 51/62/53 52/59/53
f 43/8/54 42/53/54 49/64/54 50/61/54
f 53/60/55 52/59/55 59/12/55 60/66/55
f 51/62/56 50/61/56 57/13/56 58/67/56
f 49/64/57 78/68/57 56/69/57
f 77/70/58 55/58/58 62/71/58
f 54/57/59 53/60/59 60/66/59 61/16/59
f 52/59/60 51/62/60 58/67/60 59/12/60
f 50/61/61 49/64/61 56/69/61 57/13/61
f 55/58/62 54/57/62 61/16/62 62/71/62
f 77/72/63 62/71/63 69/73/63
f 61/16/64 60/66/64 67/74/64 68/75/64
f 59/12/65 58/67/65 65/76/65 66/77/65
f 57/13/66 56/69/66 63/78/66 64/79/66
f 62/71/67 61/16/67 68/75/67 69/73/67
f 60/66/68 59/12/68 66/77/68 67/74/68
f 58/67/69 57/13/69 64/79/69 65/76/69
f 56/69/70 78/80/70 63/78/70
f 66/77/71 65/76/71 72/81/71 73/82/71
f 64/79/72 63/78/72 70/83/72 71/84/72
f 69/73/73 68/75/73 75/85/73 76/86/73
f 67/74/74 66/77/74 73/82/74 74/87/74
f 65/76/75 64/79/75 71/84/75 72/81/75
f 63/78/76 78/88/76 70/83/76
f 77/89/77 69/73/77 76/86/77
f 68/75/78 67/74/78 74/87/78 75/85/78
f 76/86/79 75/85/79 84/90/79 85/91/79
f 74/87/80 73/82/80 82/92/80 83/93/80
f 72/81/81 71/84/81 80/94/81 81/95/81
f 70/83/82 78/96/82 79/97/82
f 77/98/83 76/86/83 85/91/83
f 75/85/84 74/87/84 83/93/84 84/90/84
f 73/82/85 72/81/85 81/95/85 82/92/85
f 71/84/86 70/83/86 79/97/86 80/94/86
f 81/95/87 80/94/87 87/14/87 88/99/87
f 79/97/88 78/100/88 86/101/88
f 77/102/89 85/91/89 92/103/89
f 84/90/90 83/93/90 90/104/90 91/105/90
f 82/92/91 81/95/91 88/99/91 89/11/91
f 80/94/92 79/97/92 86/101/92 87/14/92
f 85/91/93 84/90/93 91/105/93 92/103/93
f 83/93/94 82/92/94 89/11/94 90/104/94
f 77/106/95 92/103/95 99/107/95
f 91/105/96 90/104/96 97/108/96 98/109/96
f 89/11/97 88/99/97 95/110/97 96/111/97
f 87/14/98 86/101/98 93/112/98 94/113/98
f 92/103/99 91/105/99 98/109/99 99/107/99
f 90/104/100 89/11/100 96/111/100 97/108/100
f 88/99/101 87/14/101 94/113/101 95/110/101
f 86/101/102 78/114/102 93/112/102
f 94/113/103 93/112/103 100/115/103 101/116/103
f 99/107/104 98/109/104 105/117/104 106/118/104
f 97/108/105 96/111/105 103/119/105 104/120/105
f 95/110/106 94/113/106 101/116/106 102/121/106
f 93/112/107 78/122/107 100/115/107
f 77/123/108 99/107/108 106/118/108
f 98/109/109 97/108/109 104/120/109 105/117/109
f 96/111/110 95/110/110 102/121/110 103/119/110
f 106/124/111 105/125/111 112/126/111 113/127/111
f 104/128/112 103/129/112 110/130/112 111/131/112
f 102/132/113 101/133/113 108/134/113 109/135/113
f 100/136/114 78/137/114 107/138/114
f 77/139/115 106/124/115 113/127/115
f 105/125/116 104/128/116 111/131/116 112/126/116
f 103/129/117 102/132/117 109/135/117 110/130/117
f 101/133/118 100/136/118 107/138/118 108/134/118
f 107/138/119 78/140/119 114/141/119
f 77/142/120 113/127/120 120/143/120
f 112/126/121 111/131/121 118/144/121 119/145/121
f 110/130/122 109/135/122 116/146/122 117/18/122
f 108/134/123 107/138/123 114/141/123 115/19/123
f 113/127/124 112/126/124 119/145/124 120/143/124
f 111/131/125 110/130/125 117/18/125 118/144/125
f 109/135/126 108/134/126 115/19/126 116/146/126
f 119/145/127 118/144/127 125/147/127 126/148/127
f 117/18/128 116/146/128 123/149/128 124/150/128
f 115/19/129 114/141/129 121/151/129 122/152/129
f 120/143/130 119/145/130 126/148/130 127/153/130
f 118/144/131 117/18/131 124/150/131 125/147/131
f 116/146/132 115/19/132 122/152/132 123/149/132
f 114/141/133 78/154/133 121/151/133
f 77/155/134 120/143/134 127/153/134
f 127/153/135 126/148/135 130/29/135 20/28/135
f 125/147/136 124/150/136 18/20/136 19/32/136
f 123/149/137 122/152/137 129/24/137 17/21/137
f 121/151/138 78/156/138 128/25/138
f 77/157/139 127/153/139 20/28/139
f 126/148/140 125/147/140 19/32/140 130/29/140
f 124/150/141 123/149/141 17/21/141 18/20/141
f 122/152/142 121/151/142 128/25/142 129/24/142
